<?xml version="1.0" encoding="utf-8"?>
<!-- Generator: Adobe Illustrator 24.0.2, SVG Export Plug-In . SVG Version: 6.00 Build 0)  -->
<svg version="1.1" id="Capa_1" xmlns="http://www.w3.org/2000/svg" xmlns:xlink="http://www.w3.org/1999/xlink" x="0px" y="0px"
	 viewBox="0 0 194 28.5" style="enable-background:new 0 0 194 28.5;" xml:space="preserve">
<style type="text/css">
	.st0{fill:#1E1E1E;}
	.st1{fill:#5FBEB1;}
	.st2{fill:#82C9C5;}
	.st3{fill:#77C6BF;}
	.st4{fill:#479E91;}
</style>
<g>
	<path class="st0" d="M1.2,2.2h16.4v4.9H7.4v5.3h7.7v4.8H7.4v10.2H1.2V2.2z"/>
	<path class="st0" d="M26.8,7.1c3,0,5.1,1.4,6.2,3.1V7.4h6.2v20.1h-6.2v-2.8c-1.1,1.8-3.2,3.1-6.2,3.1c-4.9,0-8.8-4-8.8-10.4
		C17.9,11.1,21.8,7.1,26.8,7.1z M28.6,12.5c-2.3,0-4.4,1.7-4.4,4.9s2.1,5,4.4,5c2.3,0,4.4-1.8,4.4-5C32.9,14.3,30.9,12.5,28.6,12.5z
		"/>
	<path class="st0" d="M49.9,27.8c-5.4,0-9-3-9.3-6.9h6.1c0.1,1.4,1.4,2.3,3.1,2.3c1.6,0,2.4-0.7,2.4-1.6c0-3.2-10.9-0.9-10.9-8.3
		c0-3.4,2.9-6.2,8.2-6.2c5.2,0,8.1,2.9,8.5,6.8h-5.7c-0.2-1.4-1.2-2.3-3-2.3c-1.4,0-2.2,0.6-2.2,1.5c0,3.2,10.9,0.9,11,8.4
		C58.1,25.2,55,27.8,49.9,27.8z"/>
	<path class="st0" d="M61,12.5h-2.4V7.4H61V2.5h6.2v4.9h4v5.1h-4v8.1c0,1.2,0.5,1.7,1.9,1.7h2.2v5.2h-3.1c-4.2,0-7.1-1.8-7.1-7V12.5
		z"/>
	<path class="st0" d="M81,27.8c-5.4,0-9-3-9.3-6.9h6.1c0.1,1.4,1.4,2.3,3.1,2.3c1.6,0,2.4-0.7,2.4-1.6c0-3.2-10.9-0.9-10.9-8.3
		c0-3.4,2.9-6.2,8.2-6.2c5.2,0,8.1,2.9,8.5,6.8h-5.7c-0.2-1.4-1.2-2.3-3-2.3c-1.4,0-2.2,0.6-2.2,1.5c0,3.2,10.9,0.9,11,8.4
		C89.2,25.2,86.1,27.8,81,27.8z"/>
	<path class="st0" d="M98.8,7.1c3,0,5.1,1.4,6.2,3.1V7.4h6.2v20.1H105v-2.8c-1.1,1.8-3.2,3.1-6.2,3.1c-4.9,0-8.8-4-8.8-10.4
		C89.9,11.1,93.9,7.1,98.8,7.1z M100.6,12.5c-2.3,0-4.4,1.7-4.4,4.9s2.1,5,4.4,5c2.3,0,4.4-1.8,4.4-5
		C105,14.3,102.9,12.5,100.6,12.5z"/>
	<path class="st0" d="M113.8,0.9h6.2v26.6h-6.2V0.9z"/>
	<path class="st0" d="M142.5,27.5h-6.2v-2.7c-1.2,1.7-3.4,3-6.1,3c-4.6,0-7.8-3.2-7.8-8.6V7.4h6.1v10.9c0,2.7,1.5,4.2,3.9,4.2
		c2.4,0,3.9-1.5,3.9-4.2V7.4h6.2V27.5z"/>
	<path class="st0" d="M152.7,7.1c2.7,0,5,1.2,6.2,3.1V0.9h6.2v26.6h-6.2v-2.9c-1.1,1.8-3.2,3.2-6.2,3.2c-4.9,0-8.9-4-8.9-10.4
		C143.9,11.1,147.8,7.1,152.7,7.1z M154.5,12.5c-2.3,0-4.4,1.7-4.4,4.9s2.1,5,4.4,5c2.3,0,4.4-1.8,4.4-5
		C158.9,14.3,156.9,12.5,154.5,12.5z"/>
</g>
<g>
	<rect x="176.5" y="0.7" class="st1" width="6" height="27"/>
	
		<rect x="176.5" y="0.7" transform="matrix(6.123234e-17 -1 1 6.123234e-17 165.2986 193.6794)" class="st1" width="6" height="27"/>
	
		<rect x="173.5" y="3.7" transform="matrix(6.123234e-17 -1 1 6.123234e-17 162.2971 190.6779)" class="st2" width="6" height="21"/>
	
		<rect x="169.8" y="7.5" transform="matrix(6.123234e-17 -1 1 6.123234e-17 158.4805 186.9975)" class="st3" width="6" height="13.5"/>
	
		<rect x="166.4" y="10.9" transform="matrix(6.123234e-17 -1 1 6.123234e-17 155.1055 183.6225)" class="st4" width="6" height="6.8"/>
</g>
</svg>
